<svg width="541" height="527" viewBox="0 0 541 527" fill="none" xmlns="http://www.w3.org/2000/svg">
<path d="M302.518 119.318C302.518 119.318 329.857 86.3001 382.24 107.34C434.644 128.381 485.931 214.737 438.253 319.24" stroke="#274D79" stroke-width="0.782" stroke-miterlimit="10"/>
<path d="M307.842 142.334C305.449 148.503 281.62 139.22 284.013 133.052L287.343 124.468C289.895 117.88 297.313 114.627 303.893 117.182C310.474 119.737 313.724 127.163 311.172 133.75L307.842 142.334Z" fill="#03AA99"/>
<path d="M284.013 133.052C281.301 139.08 305.429 148.502 307.842 142.334C309.656 137.563 285.967 128.7 284.013 133.052Z" fill="#3B55CE"/>
<path d="M293.424 137.683C293.165 138.461 292.029 138.761 290.872 138.382C289.716 138.002 288.998 137.064 289.257 136.285C289.516 135.507 290.653 135.208 291.809 135.587C292.966 135.966 293.684 136.904 293.424 137.683Z" fill="#000E5B"/>
<path d="M301.88 140.797C301.621 141.576 300.484 141.875 299.328 141.496C298.171 141.116 297.453 140.178 297.712 139.4C297.972 138.621 299.108 138.322 300.265 138.701C301.421 139.1 302.139 140.038 301.88 140.797Z" fill="#000E5B"/>
<path d="M434.464 442.107C434.464 442.107 424.155 439.273 417.455 429.831C410.735 420.388 414.324 397.871 425.969 391.423C437.615 384.975 446.568 377.35 444.773 359.863C442.979 342.376 448.801 328.482 463.577 326.686C478.353 324.889 484.176 324.669 498.951 311.335C513.727 298 525.831 295.884 531.654 303.43C537.476 310.995 532.99 321.196 529.859 330.219C526.729 339.242 537.915 348.445 540.168 357.507C542.402 366.59 540.607 378.288 528.962 384.756C517.317 391.224 509.261 396.414 510.597 408.172C511.933 419.929 505.213 437.776 480.148 442.087H434.464V442.107Z" fill="#3DC19A"/>
<path d="M512.83 322.314C512.83 322.314 458.273 365.173 448.602 442.107" stroke="#3B55CE" stroke-width="1.575" stroke-miterlimit="10" stroke-linecap="round"/>
<path d="M383.396 290.354C374.802 295.764 375.34 305.146 375.779 317.044C376.218 328.941 372.828 333.273 366.008 341.198C359.209 349.123 362.878 361.22 374.702 366.61C386.527 372 396.836 380.304 390.555 394.298C384.294 408.291 386.527 433.783 417.435 442.107L457.176 442.207C457.176 442.207 485.073 425.938 488.642 396.274C492.232 366.61 468.482 363.975 461.763 354.094C455.043 344.192 457.037 330.698 457.156 317.044C457.276 303.39 446.987 296.483 433.088 297.241C419.21 298 413.786 297.221 406.627 292.311C399.488 287.4 390.575 285.843 383.396 290.354Z" fill="#91DBAC"/>
<path d="M397.215 307.961C397.295 308.36 445.551 341.178 443.178 441.948" stroke="#3B55CE" stroke-width="1.575" stroke-miterlimit="10" stroke-linecap="round"/>
<path d="M509.822 448.408H1.93329C0.861977 448.408 0 446.943 0 445.169C0 443.374 0.874291 441.91 1.93329 441.91H509.81C510.882 441.91 511.743 443.374 511.743 445.169C511.756 446.943 510.894 448.408 509.822 448.408Z" fill="#638BE2"/>
<path d="M460.88 526.388H50.8641C22.7795 526.388 0 498.299 0 463.623V448.408H511.744V463.623C511.744 498.299 488.98 526.388 460.88 526.388Z" fill="#E5F7FF"/>
<path d="M95.9748 414.899C102.695 420.309 121.878 442.048 195.139 442.048C215.578 442.048 237.652 442.906 255.578 438.035C301.92 425.439 332.27 408.571 332.27 408.571L242.637 378.029L162.277 378.488L95.9748 414.899Z" fill="#1E4174"/>
<path d="M157.65 402.083L122.595 408.75L123.871 427.874L163.154 426.896L157.65 402.083Z" fill="#FF9A8D"/>
<path d="M157.651 402.083C157.651 402.083 242.617 378.028 269.038 371.301C299.288 363.596 345.191 342.715 360.645 362.079C376.119 381.442 357.235 407.233 315.4 418.552C273.545 429.851 159.026 428.753 159.026 428.753L157.651 402.083Z" fill="#1E4174"/>
<path d="M89.6137 397.072C89.6137 397.072 88.2378 401.464 88.4571 410.766C88.6765 420.069 93.3824 427.135 93.861 440.71C93.861 440.71 99.1253 432.046 98.866 417.973C98.6268 403.899 89.6137 397.072 89.6137 397.072Z" fill="#8FC9C6"/>
<path d="M140.442 428.293C134.959 428.872 125.766 433.164 120.143 436.158C114.52 439.133 111.509 442.267 101.459 442.187C101.459 442.187 101.419 415.597 100.342 407.373C99.2652 399.148 97.6101 397.731 97.6101 397.731C97.6101 397.731 106.922 398.33 111.549 400.805C116.175 403.281 116.693 404.418 124.849 404.738C133.004 405.057 136.354 405.496 139.924 405.437C145.348 413.94 143.194 424.221 140.442 428.293Z" fill="#03AA99"/>
<path d="M116.693 431.447C116.693 431.447 119.804 417.654 115.238 408.211" stroke="#AAEEED" stroke-width="0.9245" stroke-miterlimit="10" stroke-linecap="round"/>
<path d="M122.456 429.83C122.456 429.83 125.487 419.33 121.04 409.289" stroke="#AAEEED" stroke-width="0.9245" stroke-miterlimit="10" stroke-linecap="round"/>
<path d="M128.937 427.215C128.937 427.215 131.669 420.209 128.039 409.848" stroke="#AAEEED" stroke-width="0.9245" stroke-miterlimit="10" stroke-linecap="round"/>
<path d="M101.479 442.187C98.3082 442.127 94.4198 442.047 93.8814 440.71C93.343 439.372 97.0519 431.447 95.5763 415.717C94.7787 407.273 88.8564 397.352 89.6341 397.072C90.3918 396.793 95.0379 395.056 97.6302 397.751C100.222 400.446 113.343 417.693 101.479 442.187Z" fill="#AAEEED"/>
<path d="M312.05 226.335C323.097 218.51 346.926 200.305 359.449 161.198C363.417 148.782 363.776 140.278 363.676 134.589C357.215 129.139 357.893 118.839 351.991 112.451C343.696 103.468 336.278 92.0492 352.489 92.0492C361.522 92.0492 369.838 92.4085 374.284 96.7204C377.814 100.134 384.474 110.235 385.69 113.748C388.462 121.693 385.252 131.714 384.893 143.811C384.554 155.908 376.597 231.625 318.251 263.425L312.05 226.335Z" fill="#FF9A8D"/>
<path d="M185.567 197.809C185.567 197.809 185.307 207.491 184.47 211.503C183.632 215.496 184.47 217.612 172.266 219.708C172.266 219.708 177.232 235.718 198.368 238.452C219.505 241.187 228.139 224.559 227.501 224.559C226.863 224.559 220.981 222.143 219.087 220.906C217.192 219.688 218.588 196.332 218.588 196.332L185.567 197.809Z" fill="#FF9A8D"/>
<path d="M218.309 202.241C218.309 202.241 215.717 210.445 202.895 211.284C190.053 212.122 185.288 204.018 185.288 204.018L185.587 197.789L218.608 196.312L218.309 202.241Z" fill="#BA5964"/>
<path d="M165.387 162.636C165.387 162.636 158.747 161.598 155.836 166.488C152.925 171.379 156.574 180.502 163.473 182.019C170.093 183.476 172.267 179.763 172.267 179.763L165.387 162.636Z" fill="#FF9A8D"/>
<path d="M159.585 167.526C161.1 166.728 163.513 166.508 165.009 167.407C165.567 167.746 164.809 168.684 164.311 168.564C161.459 167.926 158.129 168.225 157.212 171.579C157.172 171.758 157.012 171.599 157.032 171.479C157.152 169.682 157.97 168.365 159.585 167.526Z" fill="#BA5964"/>
<path d="M160.881 167.606C161.16 167.427 161.958 168.085 161.918 168.305C161.499 168.564 160.861 169.163 160.622 169.802C160.183 170.9 160.143 171.798 160.382 172.956C160.961 175.631 162.735 177.368 165.467 177.627C165.507 177.627 165.607 177.767 165.547 177.787C163.333 178.665 160.402 176.649 159.605 174.653C158.707 172.457 158.428 169.203 160.881 167.606Z" fill="#BA5964"/>
<path d="M229.556 150.299C229.556 150.299 235.338 146.865 239.865 150.319C244.371 153.772 244.371 163.614 238.529 167.586C232.926 171.399 229.536 168.744 229.536 168.744L229.556 150.299Z" fill="#FF9A8D"/>
<path d="M236.754 152.694C235.059 152.535 232.726 153.193 231.669 154.591C231.27 155.11 232.327 155.709 232.746 155.409C235.159 153.752 238.369 152.794 240.443 155.589C240.563 155.729 240.623 155.529 240.583 155.429C239.805 153.792 238.569 152.874 236.754 152.694Z" fill="#BA5964"/>
<path d="M235.578 153.253C235.239 153.194 234.76 154.092 234.88 154.272C235.358 154.371 236.176 154.691 236.654 155.19C237.472 156.048 237.851 156.867 238.03 158.044C238.489 160.739 237.472 163.015 235.039 164.273C234.999 164.293 234.959 164.452 235.039 164.452C237.432 164.452 239.386 161.478 239.406 159.342C239.386 156.946 238.449 153.812 235.578 153.253Z" fill="#BA5964"/>
<path d="M205.787 118.12C200.643 116.343 195.139 115.784 189.855 116.802C184.57 117.82 179.366 120.176 175.238 123.729C165.607 132.014 161.878 145.129 164.231 157.425C164.231 157.445 164.231 157.465 164.251 157.485C164.929 160.999 165.806 164.472 166.883 167.886L168.399 172.657C169.575 176.39 172.247 183.536 176.495 190.064C184.929 203.019 198.648 205.135 206.525 203.618C214.421 202.101 226.366 195.034 229.397 179.883C230.932 172.237 230.773 164.632 230.473 160.719L230.114 155.729C229.855 152.155 229.377 148.602 228.699 145.089C228.699 145.069 228.699 145.049 228.679 145.029C226.326 132.752 217.791 122.252 205.787 118.12Z" fill="#FF9A8D"/>
<path d="M210.532 154.89C210.174 153.034 211.39 151.217 213.264 150.858C215.119 150.499 216.933 151.716 217.292 153.593C217.651 155.449 216.435 157.266 214.56 157.625C212.686 157.985 210.891 156.767 210.532 154.89Z" fill="#001C45"/>
<path d="M211.35 142.434L227.521 145.508C227.521 145.508 226.365 141.056 220.622 138.721C218.11 137.703 215.278 137.803 213.563 138.741C211.091 140.118 211.35 142.434 211.35 142.434Z" fill="#001C45"/>
<path d="M183.573 147.364L171.748 158.843C171.748 158.843 170.273 154.491 173.802 149.381C175.338 147.145 177.75 145.668 179.724 145.528C182.536 145.288 183.573 147.364 183.573 147.364Z" fill="#001C45"/>
<path d="M188.938 159.522C188.579 157.665 186.784 156.427 184.91 156.787C183.055 157.146 181.819 158.943 182.178 160.819C182.537 162.676 184.331 163.913 186.206 163.554C188.08 163.195 189.296 161.398 188.938 159.522Z" fill="#001C45"/>
<path d="M200.882 156.148C199.327 156.567 198.19 172.537 200.344 174.813C201.241 175.751 203.475 176.429 204.711 176.07C205.987 175.95 207.802 174.493 208.3 173.275C209.457 170.381 202.498 155.948 200.882 156.148Z" fill="#BA5964"/>
<path d="M147.203 127.402C147.203 127.402 159.486 125.007 164.152 131.315" stroke="#001C45" stroke-width="1.7149" stroke-miterlimit="10" stroke-linecap="round"/>
<path d="M146.843 115.305C146.843 115.305 162.077 117.88 164.371 132.453" stroke="#001C45" stroke-width="1.7149" stroke-miterlimit="10" stroke-linecap="round"/>
<path d="M169.276 131.335C169.276 131.335 177.871 144.27 191.989 148.103C206.106 151.936 214.083 135.567 212.647 128.121C212.647 128.121 226.446 150.359 229.556 150.299C229.556 150.299 232.926 141.336 231.83 131.315C230.733 121.294 225.987 116.303 220.882 112.61C216.017 109.097 211.271 111.213 209.317 112.491C206.745 107.64 199.187 97.3991 184.292 99.0759C167.621 100.952 161.161 112.471 163.573 130.037C163.573 130.037 157.312 128.261 153.583 135.547C149.834 142.813 154.002 156.927 158.987 163.634C158.987 163.634 163.334 162.256 165.408 162.656C165.408 162.656 162.477 151.038 165.228 140.837C167.442 132.533 169.276 131.335 169.276 131.335Z" fill="#001C45"/>
<path d="M177.511 218.61C179.006 224.639 187.521 234.201 199.904 234.779C212.287 235.358 222.517 227.034 224.192 223.361C234.521 224.319 247.661 227.134 252.068 227.932C258.31 229.07 264.372 234.64 262.138 252.246C259.965 269.334 246.425 377.33 246.425 377.33C246.425 377.33 210.632 391.244 162.256 378.488C162.256 378.488 132.984 261.269 130.372 251.129C127.759 240.988 124.589 230.268 133.841 227.074C143.094 223.88 177.511 218.61 177.511 218.61Z" fill="#1DCFA9"/>
<path d="M217.452 343.314C218.13 343.454 218.828 343.554 219.506 343.613C226.325 344.332 223.215 336.607 221.081 333.572C217.811 328.921 195.119 311.334 195.119 311.334L177.491 312.832L157.63 321.016L149.475 327.364C151.13 333.972 152.725 340.36 154.201 346.288C161.619 341.637 179.585 330.598 183.553 330.219C186.046 329.979 188.299 330.858 190.532 331.816C193.763 333.213 197.013 334.471 200.323 335.688C201.819 336.227 203.334 336.786 204.77 337.485C207.362 338.743 209.715 340.459 212.347 341.677C213.982 342.436 215.697 342.975 217.452 343.314Z" fill="#03AA99"/>
<path d="M293.645 306.364L306.486 312.493" stroke="#274D79" stroke-width="2.1" stroke-miterlimit="10" stroke-linecap="round"/>
<path d="M288.221 317.024L301.062 323.172" stroke="#274D79" stroke-width="2.1" stroke-miterlimit="10" stroke-linecap="round"/>
<path d="M108.836 362.079C125.725 364.554 155.676 365.153 182.117 341.178C203.414 321.875 222.856 285.044 272.328 301.234" stroke="#274D79" stroke-width="0.782" stroke-miterlimit="10"/>
<path d="M295.638 299.397C301.481 302.491 289.517 325.109 283.674 322.015L275.538 317.703C269.297 314.389 266.924 306.664 270.214 300.415C273.524 294.167 281.241 291.792 287.483 295.085L295.638 299.397Z" fill="#03AA99"/>
<path d="M120.78 244.8C120.78 244.8 80.7597 317.224 73.4814 329.44C66.2031 341.657 67.6987 355.371 69.1942 358.805C70.6898 362.238 91.4478 364.594 110.511 357.308C129.554 350.021 178.608 325.069 182.257 323.152C182.257 323.152 186.923 326.227 191.609 328.442C198.149 331.536 203.453 331.676 207.701 334.89C211.948 338.104 216.594 344.232 224.79 340.26C229.675 337.904 218.847 322.713 214.002 314.309C209.256 310.257 192.347 303.23 183.872 304.448C171.868 306.164 111.628 326.686 111.628 326.686L133.462 288.977L120.78 244.8Z" fill="#FF9A8D"/>
<path d="M135.935 226.415C126.105 229.509 122.316 234.32 112.705 251.827C103.093 269.334 90.3712 290.614 90.3712 290.614C90.3712 290.614 100.7 306.743 123.472 311.335L138.926 285.184L135.935 226.415Z" fill="#1DCFA9"/>
<path d="M252.069 227.952C263.834 229.869 293.744 238.652 312.05 226.335C312.05 226.335 324.134 244.781 322.06 267.937C322.06 267.937 297.254 290.075 258.49 281.192L252.069 227.952Z" fill="#1DCFA9"/>
<path d="M255.578 407.553L289.975 417.015L287.184 435.959L248.1 431.847L255.578 407.553Z" fill="#FF9A8D"/>
<path d="M255.578 407.553C255.578 407.553 176.514 380.244 147.201 369.505C117.889 358.745 74.9371 337.246 57.9678 355.311C40.9984 373.377 55.1761 400.266 95.9943 414.899C136.812 429.531 252.068 434.023 252.068 434.023C255.598 425.439 256.734 416.616 255.578 407.553Z" fill="#85B8ED"/>
<path d="M323.774 408.012C323.774 408.012 324.791 412.503 323.834 421.766C322.877 431.028 317.613 437.676 316.057 451.17C316.057 451.17 311.511 442.107 312.887 428.114C314.263 414.12 323.774 408.012 323.774 408.012Z" fill="#8FC9C6"/>
<path d="M270.613 435.061C276.037 436.079 284.851 441.089 290.215 444.523C295.579 447.956 298.33 451.31 308.36 452.028C308.36 452.028 310.534 425.539 312.249 417.414C313.984 409.309 315.738 408.032 315.738 408.032C315.738 408.032 306.406 407.872 301.601 409.988C296.795 412.084 296.177 413.182 288.021 412.843C279.865 412.503 276.495 412.683 272.946 412.324C266.884 420.348 268.22 430.789 270.613 435.061Z" fill="#03AA99"/>
<path d="M294.063 440.091C294.063 440.091 292.049 426.078 297.373 417.035" stroke="#AAEEED" stroke-width="0.9245" stroke-miterlimit="10" stroke-linecap="round"/>
<path d="M288.44 438.035C288.44 438.035 286.266 427.335 291.491 417.674" stroke="#AAEEED" stroke-width="0.9245" stroke-miterlimit="10" stroke-linecap="round"/>
<path d="M282.199 434.921C282.199 434.921 280.025 427.715 284.492 417.674" stroke="#AAEEED" stroke-width="0.9245" stroke-miterlimit="10" stroke-linecap="round"/>
<path d="M308.36 452.029C311.531 452.228 315.419 452.448 316.057 451.17C316.695 449.893 313.625 441.688 316.356 426.117C317.832 417.753 324.512 408.351 323.774 408.012C323.037 407.672 318.55 405.556 315.738 408.052C312.947 410.527 298.49 426.656 308.36 452.029Z" fill="#AAEEED"/>
<path d="M255.479 421.746H253.704C253.704 421.746 202.178 418.392 146.982 409.289C92.7642 400.346 56.1136 382.081 51.2083 368.666C48.7955 384.895 64.4088 403.58 95.9946 414.879C136.813 429.511 252.069 434.003 252.069 434.003C253.544 430.449 254.741 426.437 255.479 421.746Z" fill="#4E7EAC"/>
<path d="M245.329 402.901C245.269 410.048 243.793 426.098 240.663 435.959" stroke="#274D79" stroke-width="0.782" stroke-miterlimit="10"/>
<path d="M138.946 285.184C138.946 285.184 145.088 268.875 140.9 244.8C140.9 244.8 148.597 274.165 140.242 290.334L138.946 285.184Z" fill="#03AA99"/>
<path d="M258.489 281.192C258.489 281.192 260.743 262.647 256.715 245.339C256.715 245.339 261.6 255.281 261.341 281.791L258.489 281.192Z" fill="#03AA99"/>
<path d="M35.4943 44.2994L77.8479 88.2363L63.6503 104.266L16.7104 65.4993L35.4943 44.2994ZM91.8063 99.3553C93.0825 100.473 94.0396 101.771 94.6976 103.248C95.3557 104.705 95.7345 106.222 95.8342 107.779C95.9339 109.336 95.7345 110.874 95.236 112.391C94.7375 113.908 93.9399 115.285 92.8431 116.523C91.7265 117.8 90.4304 118.759 88.9747 119.437C87.5191 120.116 86.0235 120.495 84.4881 120.595C82.9327 120.695 81.3973 120.495 79.8818 119.996C78.3664 119.497 76.9705 118.699 75.6943 117.561C74.458 116.463 73.4809 115.165 72.783 113.708C72.0851 112.231 71.6863 110.714 71.5866 109.177C71.4869 107.62 71.6863 106.083 72.1649 104.546C72.6434 103.008 73.4411 101.611 74.5777 100.333C75.6744 99.0958 76.9506 98.1376 78.4262 97.4789C79.8818 96.8201 81.3973 96.4408 82.9527 96.341C84.508 96.2412 86.0634 96.4608 87.6187 96.9598C89.1542 97.4589 90.55 98.2574 91.8063 99.3553Z" fill="#3B55CE"/>
<path d="M123.332 59.3311L104.369 64.0622C103.113 60.1696 102.514 56.776 102.554 53.9214C102.594 51.0668 103.013 48.5914 103.771 46.5154C104.548 44.4393 105.545 42.6427 106.782 41.1655C108.018 39.6883 109.254 38.3508 110.491 37.193C111.727 36.0352 112.804 34.9373 113.721 33.9192C114.638 32.9011 115.157 31.7633 115.296 30.5456C115.396 29.807 115.276 29.0085 114.937 28.1501C114.598 27.2917 114.02 26.5531 113.163 25.9343C112.305 25.3155 111.169 24.8962 109.753 24.6767C108.337 24.4571 106.582 24.5968 104.528 25.1158C103.192 25.4552 101.617 25.9742 99.8224 26.6729C98.0278 27.3716 96.1933 28.2299 94.2989 29.248C92.4046 30.2661 90.57 31.364 88.7953 32.6017C87.0206 33.8194 85.4653 35.097 84.1293 36.4145L76.173 15.0149C77.3495 13.8372 78.7055 12.5995 80.2209 11.282C81.7364 9.96447 83.4513 8.70685 85.3855 7.48915C87.2998 6.27145 89.4534 5.13361 91.8064 4.07561C94.1593 3.01761 96.7516 2.1193 99.6031 1.42063C104.209 0.262814 108.716 -0.176355 113.123 0.0631918C117.53 0.322701 121.577 1.28089 125.266 2.99764C128.955 4.69444 132.146 7.12983 134.838 10.3038C137.53 13.4579 139.464 17.3904 140.641 22.0616C141.518 25.6149 141.737 28.5893 141.259 31.0047C140.78 33.4002 139.943 35.4962 138.706 37.2728C137.49 39.0495 136.014 40.6465 134.3 42.0638C132.585 43.4811 130.95 44.9783 129.374 46.5553C127.799 48.1124 126.443 49.909 125.286 51.9052C124.13 53.9214 123.472 56.3967 123.332 59.3311ZM129.833 73.4445C130.252 75.1013 130.311 76.6983 130.032 78.2953C129.753 79.8723 129.215 81.3296 128.417 82.667C127.619 84.0045 126.583 85.1623 125.326 86.1205C124.05 87.0986 122.614 87.7774 121.019 88.1766C119.364 88.5958 117.769 88.6557 116.194 88.3962C114.618 88.1367 113.163 87.5977 111.827 86.7992C110.491 86.0007 109.334 84.9627 108.377 83.7051C107.4 82.4474 106.722 80.9902 106.303 79.3333C105.904 77.7164 105.825 76.1194 106.084 74.5025C106.343 72.8855 106.861 71.4083 107.659 70.0908C108.457 68.7533 109.494 67.5955 110.75 66.5974C112.006 65.5993 113.462 64.9006 115.117 64.5014C116.732 64.1021 118.307 64.0422 119.902 64.3217C121.478 64.6012 122.933 65.1402 124.269 65.9387C125.605 66.7371 126.762 67.7951 127.759 69.0927C128.736 70.3902 129.434 71.8475 129.833 73.4445Z" fill="#3B55CE"/>
</svg>
